<svg width="10" height="10" viewBox="0 0 10 10" fill="none" xmlns="http://www.w3.org/2000/svg">
<path d="M4.37114e-07 5C5.53044e-07 3.67392 0.526785 2.40215 1.46447 1.46447C2.40215 0.526783 3.67392 -5.53044e-07 5 -4.37114e-07C6.32608 -3.21184e-07 7.59785 0.526784 8.53553 1.46447C9.47322 2.40215 10 3.67392 10 5C10 6.32608 9.47322 7.59785 8.53553 8.53553C7.59785 9.47322 6.32608 10 5 10C3.67392 10 2.40215 9.47322 1.46447 8.53553C0.526784 7.59785 3.21184e-07 6.32608 4.37114e-07 5ZM3.69 3.24812C3.66117 3.21828 3.62669 3.19447 3.58856 3.17809C3.55044 3.16171 3.50943 3.15309 3.46794 3.15273C3.42644 3.15237 3.3853 3.16028 3.34689 3.17599C3.30849 3.19171 3.27359 3.21491 3.24425 3.24425C3.21491 3.27359 3.19171 3.30848 3.17599 3.34689C3.16028 3.38529 3.15237 3.42644 3.15273 3.46794C3.1531 3.50943 3.16172 3.55044 3.17809 3.58856C3.19447 3.62669 3.21828 3.66117 3.24813 3.69L5.80813 6.25L4.07813 6.25C3.99524 6.25 3.91576 6.28292 3.85715 6.34153C3.79855 6.40013 3.76563 6.47962 3.76563 6.5625C3.76563 6.64538 3.79855 6.72487 3.85715 6.78347C3.91576 6.84208 3.99524 6.875 4.07813 6.875L6.5625 6.875C6.64538 6.875 6.72487 6.84208 6.78347 6.78347C6.84208 6.72487 6.875 6.64538 6.875 6.5625L6.875 4.07812C6.875 3.99524 6.84208 3.91576 6.78347 3.85715C6.72487 3.79855 6.64538 3.76562 6.5625 3.76562C6.47962 3.76562 6.40013 3.79855 6.34153 3.85715C6.28292 3.91576 6.25 3.99524 6.25 4.07812L6.25 5.80812L3.69 3.24812Z" fill="#FF6B6B"/>
</svg>
