<svg width="198" height="42" viewBox="0 0 198 42" fill="none" xmlns="http://www.w3.org/2000/svg">
<g clip-path="url(#clip0_1_14975)">
<path d="M21.4201 22.9005C21.9633 21.971 22.3184 20.951 22.692 19.8691C23.0815 18.7459 23.4817 17.5839 24.1203 16.5149C24.9602 15.1102 26.1977 13.9431 27.6418 13.1298V4.30145C27.6418 3.18597 26.7144 2.28223 25.5697 2.28223H17.2838C16.1391 2.28223 15.2117 3.18597 15.2117 4.30145V14.8159H4.42174C3.27703 14.8159 2.34961 15.7196 2.34961 16.8351V24.912C2.34961 26.0275 3.27703 26.9312 4.42174 26.9312H15.1295C17.7104 26.6343 20.127 25.1057 21.4201 22.9005Z" fill="#3EBFB8"/>
<path d="M38.4356 14.8164H27.6642C26.7474 15.4594 25.9631 16.2831 25.3934 17.2359C24.829 18.1783 24.4686 19.2215 24.087 20.3267C23.7081 21.4241 23.3133 22.5602 22.6985 23.6111C21.1643 26.2294 18.284 28.0395 15.2129 28.3674V37.4488C15.2129 38.5642 16.1403 39.468 17.285 39.468H25.5736C26.7183 39.468 27.6457 38.5642 27.6457 37.4488V26.9318H38.4356C39.5803 26.9318 40.5078 26.028 40.5078 24.9125V16.8356C40.5078 15.7227 39.5803 14.8164 38.4356 14.8164Z" fill="#203360"/>
<path d="M59.8405 21.8516H51.5376V29.9971H47.7206V11.0303H51.5376V18.638H59.8405V11.0303H63.6705V29.9971H59.8405V21.8516ZM69.5214 24.0945C69.5127 24.7854 69.622 25.3887 69.8493 25.9047C70.0767 26.4118 70.4046 26.8053 70.8331 27.0852C71.2703 27.3562 71.795 27.4918 72.4071 27.4918C73.0629 27.4918 73.6357 27.3519 74.1254 27.072C74.6238 26.7922 74.9692 26.3331 75.1616 25.6948H78.6113C78.4627 26.6567 78.0779 27.4787 77.457 28.1607C76.8449 28.8428 76.1016 29.3631 75.2272 29.7216C74.3527 30.0801 73.4433 30.2594 72.4989 30.2594C71.161 30.2594 69.9805 29.9796 68.9574 29.4199C67.943 28.8515 67.1517 28.0514 66.5833 27.0196C66.0149 25.9877 65.7307 24.7722 65.7307 23.3731C65.7307 22.0177 65.9887 20.7979 66.5046 19.7136C67.0205 18.6205 67.7682 17.7592 68.7475 17.1296C69.7357 16.4912 70.9205 16.172 72.3022 16.172C73.6838 16.172 74.8424 16.465 75.7781 17.0509C76.7225 17.628 77.4308 18.4369 77.903 19.4775C78.384 20.5093 78.6244 21.7029 78.6244 23.0583V24.0945H69.5214ZM69.5083 21.8122H75.0436C75.0436 21.2701 74.943 20.7716 74.7419 20.3169C74.5408 19.8622 74.2347 19.5037 73.8237 19.2414C73.4215 18.979 72.9143 18.8479 72.3022 18.8479C71.7075 18.8479 71.2004 18.9921 70.7806 19.2807C70.3696 19.5605 70.0548 19.9278 69.8362 20.3825C69.6176 20.8372 69.5083 21.3138 69.5083 21.8122ZM84.9561 30.2594C84.0904 30.2594 83.3121 30.0976 82.6213 29.7741C81.9305 29.4505 81.384 28.9827 80.9817 28.3706C80.5795 27.7497 80.3784 26.9977 80.3784 26.1145C80.3784 24.628 80.9336 23.4999 82.0442 22.7304C83.1547 21.9521 84.908 21.5499 87.304 21.5237L88.9961 21.4974V20.6842C88.9961 20.0633 88.8124 19.5868 88.4452 19.2545C88.0866 18.9134 87.527 18.7473 86.7662 18.756C86.2066 18.7648 85.6732 18.896 85.166 19.1495C84.6675 19.4031 84.3265 19.8447 84.1429 20.4743H80.9555C81.008 19.4949 81.2922 18.6905 81.8081 18.0609C82.324 17.4225 83.0236 16.9503 83.9068 16.6442C84.7987 16.3294 85.8087 16.172 86.9367 16.172C88.3271 16.172 89.442 16.3469 90.2815 16.6967C91.121 17.0378 91.7287 17.5318 92.1047 18.1789C92.4807 18.8173 92.6687 19.578 92.6687 20.4612V29.9971H89.4683L89.1535 27.6623C88.69 28.6417 88.1085 29.3194 87.4089 29.6954C86.7181 30.0714 85.9005 30.2594 84.9561 30.2594ZM86.2415 27.741C86.5913 27.741 86.928 27.6798 87.2515 27.5574C87.5838 27.4262 87.8768 27.2557 88.1304 27.0458C88.3927 26.8272 88.6026 26.5824 88.76 26.3113C88.9174 26.0402 88.9961 25.7604 88.9961 25.4718V23.4649L87.6188 23.4912C86.9805 23.4999 86.3858 23.5786 85.8349 23.7273C85.284 23.8672 84.8381 24.0989 84.497 24.4225C84.1647 24.746 83.9986 25.1832 83.9986 25.7341C83.9986 26.3637 84.2172 26.8578 84.6544 27.2163C85.0916 27.5661 85.6207 27.741 86.2415 27.741ZM99.8631 30.2332C98.8662 30.2332 98.0748 30.1151 97.4889 29.879C96.9031 29.6429 96.4702 29.3325 96.1904 28.9477C95.9106 28.5542 95.7313 28.1214 95.6526 27.6492C95.5739 27.1682 95.5345 26.6829 95.5345 26.1932V10.5056H99.2859V25.721C99.2859 26.2195 99.3909 26.6261 99.6007 26.9409C99.8193 27.2469 100.226 27.4349 100.821 27.5049L101.463 27.5442V29.9053C101.201 29.9927 100.934 30.067 100.663 30.1282C100.392 30.1982 100.125 30.2332 99.8631 30.2332ZM111.542 19.0971H108.525L108.551 26.3244C108.551 26.6567 108.591 26.9059 108.67 27.072C108.757 27.2294 108.888 27.3344 109.063 27.3868C109.247 27.4306 109.478 27.4524 109.758 27.4524H111.581V29.8134C111.407 29.8921 111.131 29.9665 110.755 30.0364C110.388 30.1064 109.872 30.1414 109.207 30.1414C108.018 30.1414 107.095 29.9883 106.44 29.6823C105.793 29.3762 105.342 28.9477 105.089 28.3968C104.835 27.8459 104.708 27.2076 104.708 26.4818V19.0971H102.505V16.4344H104.839L105.797 12.342H108.525V16.4213H111.542V19.0971ZM114.371 29.9971V10.5056H118.175V18.3888C118.394 18.074 118.669 17.7635 119.002 17.4575C119.334 17.1427 119.749 16.8803 120.248 16.6705C120.746 16.4606 121.354 16.3557 122.071 16.3557C122.937 16.3557 123.724 16.5262 124.432 16.8672C125.149 17.1995 125.722 17.6848 126.15 18.3232C126.587 18.9615 126.806 19.7398 126.806 20.658V29.9971H122.963V21.222C122.963 20.6099 122.74 20.142 122.294 19.8185C121.857 19.4862 121.323 19.3201 120.694 19.3201C120.283 19.3201 119.885 19.3944 119.5 19.543C119.115 19.6917 118.8 19.9191 118.556 20.2251C118.32 20.5224 118.201 20.8941 118.201 21.34V29.9971H114.371ZM131.509 34.3256C130.582 34.3256 129.926 34.2469 129.541 34.0895C129.165 33.9408 128.977 33.8665 128.977 33.8665V31.4268L130.315 31.4793C130.901 31.5142 131.373 31.4836 131.732 31.3874C132.09 31.3 132.362 31.1819 132.545 31.0333C132.738 30.8846 132.873 30.7272 132.952 30.5611C133.031 30.4037 133.087 30.2769 133.122 30.1807L133.372 29.4331L128.099 16.4344H131.889L135.142 25.2751L138.435 16.4344H142.173L136.677 30.0758C136.205 31.23 135.706 32.1132 135.182 32.7253C134.657 33.3375 134.089 33.7572 133.476 33.9846C132.873 34.2119 132.217 34.3256 131.509 34.3256ZM143.367 29.9971V16.4344H147.118V18.3494C147.529 17.7548 148.08 17.2432 148.771 16.8148C149.47 16.3863 150.349 16.172 151.407 16.172C151.871 16.172 152.343 16.2551 152.824 16.4213C153.305 16.5874 153.755 16.8323 154.175 17.1558C154.603 17.4706 154.949 17.8685 155.211 18.3494C155.648 17.7286 156.221 17.2126 156.929 16.8016C157.646 16.3819 158.442 16.172 159.316 16.172C159.824 16.172 160.335 16.2551 160.851 16.4213C161.376 16.5874 161.857 16.8585 162.294 17.2345C162.731 17.6105 163.081 18.1133 163.343 18.7429C163.614 19.3638 163.75 20.1333 163.75 21.0515V29.9971H159.92V21.5237C159.92 20.9815 159.81 20.5487 159.592 20.2251C159.382 19.8928 159.111 19.6567 158.779 19.5168C158.455 19.3682 158.11 19.2938 157.742 19.2938C157.401 19.2938 157.056 19.3638 156.706 19.5037C156.356 19.6349 156.059 19.8491 155.814 20.1464C155.569 20.4437 155.447 20.8329 155.447 21.3138V29.9971H151.63V21.1826C151.63 20.7716 151.521 20.4262 151.302 20.1464C151.084 19.8666 150.808 19.6567 150.476 19.5168C150.152 19.3682 149.82 19.2938 149.479 19.2938C149.129 19.2938 148.779 19.3682 148.43 19.5168C148.08 19.6567 147.787 19.8797 147.551 20.1858C147.315 20.4831 147.197 20.8591 147.197 21.3138V29.9971H143.367ZM169.482 24.0945C169.473 24.7854 169.583 25.3887 169.81 25.9047C170.037 26.4118 170.365 26.8053 170.794 27.0852C171.231 27.3562 171.756 27.4918 172.368 27.4918C173.024 27.4918 173.596 27.3519 174.086 27.072C174.585 26.7922 174.93 26.3331 175.122 25.6948H178.572C178.423 26.6567 178.039 27.4787 177.418 28.1607C176.806 28.8428 176.062 29.3631 175.188 29.7216C174.313 30.0801 173.404 30.2594 172.46 30.2594C171.122 30.2594 169.941 29.9796 168.918 29.4199C167.904 28.8515 167.112 28.0514 166.544 27.0196C165.976 25.9877 165.691 24.7722 165.691 23.3731C165.691 22.0177 165.949 20.7979 166.465 19.7136C166.981 18.6205 167.729 17.7592 168.708 17.1296C169.696 16.4912 170.881 16.172 172.263 16.172C173.644 16.172 174.803 16.465 175.739 17.0509C176.683 17.628 177.391 18.4369 177.864 19.4775C178.345 20.5093 178.585 21.7029 178.585 23.0583V24.0945H169.482ZM169.469 21.8122H175.004C175.004 21.2701 174.904 20.7716 174.703 20.3169C174.501 19.8622 174.195 19.5037 173.784 19.2414C173.382 18.979 172.875 18.8479 172.263 18.8479C171.668 18.8479 171.161 18.9921 170.741 19.2807C170.33 19.5605 170.016 19.9278 169.797 20.3825C169.578 20.8372 169.469 21.3138 169.469 21.8122ZM185.494 30.2594C183.675 30.2594 182.258 29.6342 181.244 28.3837C180.23 27.1245 179.723 25.3756 179.723 23.137C179.723 21.7204 179.928 20.4918 180.339 19.4512C180.75 18.4106 181.358 17.6061 182.162 17.0378C182.967 16.4606 183.951 16.172 185.114 16.172C185.603 16.172 186.058 16.2289 186.478 16.3426C186.906 16.4475 187.295 16.5962 187.645 16.7885C187.995 16.9809 188.301 17.2039 188.563 17.4575C188.826 17.7111 189.04 17.9822 189.206 18.2707V10.5056H193.049V29.9971H190.268L189.836 27.2163C189.713 27.5923 189.543 27.9596 189.324 28.3181C189.105 28.6767 188.826 29.0046 188.485 29.3019C188.144 29.5905 187.724 29.8222 187.225 29.9971C186.736 30.172 186.159 30.2594 185.494 30.2594ZM186.333 27.5049C187.295 27.5049 188.012 27.1682 188.485 26.4949C188.965 25.8216 189.206 24.6848 189.206 23.0846C189.197 22.1576 189.088 21.3881 188.878 20.776C188.668 20.1639 188.353 19.7092 187.934 19.4119C187.523 19.1058 186.998 18.9528 186.36 18.9528C185.529 18.9528 184.838 19.272 184.287 19.9103C183.736 20.5399 183.461 21.598 183.461 23.0846C183.461 24.5974 183.719 25.7123 184.235 26.4293C184.751 27.1464 185.45 27.5049 186.333 27.5049Z" fill="#213360"/>
</g>
<defs>
<clipPath id="clip0_1_14975">
<rect width="198" height="41.8486" fill="white"/>
</clipPath>
</defs>
</svg>
