<svg width="20" height="18" viewBox="0 0 20 18" fill="none" xmlns="http://www.w3.org/2000/svg">
<mask id="path-1-outside-1_8744_2242" maskUnits="userSpaceOnUse" x="0" y="-0.223145" width="20" height="18" fill="black">
<rect fill="white" y="-0.223145" width="20" height="18"/>
<path d="M18.9999 13.3658C18.9999 13.6094 18.9032 13.8429 18.731 14.0151C18.5588 14.1873 18.3251 14.2842 18.0815 14.2842H14.6377C14.3097 14.2842 14.0064 14.109 13.8424 13.825C13.6783 13.5408 13.6783 13.1907 13.8424 12.9066C14.0064 12.6225 14.3097 12.4474 14.6377 12.4474H18.0815C18.3251 12.4474 18.5588 12.5442 18.731 12.7164C18.9032 12.8886 18.9999 13.1222 18.9999 13.3658ZM18.0815 9.50866H14.6377C14.3097 9.50866 14.0064 9.68367 13.8424 9.96784C13.6783 10.252 13.6783 10.602 13.8424 10.8862C14.0064 11.1704 14.3097 11.3454 14.6377 11.3454H18.0815C18.4097 11.3454 18.7129 11.1704 18.8769 10.8862C19.041 10.602 19.041 10.252 18.8769 9.96784C18.7129 9.68367 18.4097 9.50866 18.0815 9.50866ZM18.0815 6.56982H14.6377C14.3097 6.56982 14.0064 6.74496 13.8424 7.029C13.6783 7.31318 13.6783 7.66333 13.8424 7.94737C14.0064 8.23154 14.3097 8.40656 14.6377 8.40656H18.0815C18.4097 8.40656 18.7129 8.23154 18.8769 7.94737C19.041 7.66333 19.041 7.31317 18.8769 7.029C18.7129 6.74496 18.4097 6.56982 18.0815 6.56982ZM11.7209 12.4474L8.27698 12.4475C7.94886 12.4475 7.64573 12.6225 7.48161 12.9067C7.31761 13.1907 7.31761 13.5409 7.48161 13.8251C7.64573 14.1091 7.94886 14.2842 8.27698 14.2842H11.7225C12.0506 14.2842 12.3537 14.1091 12.5179 13.8251C12.6819 13.5409 12.6819 13.1907 12.5179 12.9067C12.3537 12.6225 12.0506 12.4475 11.7225 12.4475L11.7209 12.4474ZM11.7209 9.50853L8.27698 9.50866C7.94886 9.50866 7.64573 9.68367 7.48161 9.96784C7.31761 10.252 7.31761 10.602 7.48161 10.8862C7.64573 11.1704 7.94886 11.3454 8.27698 11.3454H11.7225C12.0506 11.3454 12.3537 11.1704 12.5179 10.8862C12.6819 10.602 12.6819 10.252 12.5179 9.96784C12.3537 9.68367 12.0506 9.50866 11.7225 9.50866L11.7209 9.50853ZM18.0815 15.3861H14.6377C14.3097 15.3861 14.0064 15.5611 13.8424 15.8453C13.6783 16.1294 13.6783 16.4795 13.8424 16.7636C14.0064 17.0478 14.3097 17.2228 14.6377 17.2228H18.0815C18.4097 17.2228 18.7129 17.0478 18.8769 16.7636C19.041 16.4795 19.041 16.1294 18.8769 15.8453C18.7129 15.5611 18.4097 15.3861 18.0815 15.3861ZM12.6392 16.3044C12.6392 16.0609 12.5426 15.8273 12.3703 15.6551C12.1981 15.4828 11.9645 15.3861 11.721 15.3861H8.2771C7.94899 15.3861 7.64586 15.5611 7.48173 15.8453C7.31774 16.1294 7.31774 16.4795 7.48173 16.7636C7.64586 17.0478 7.94899 17.2228 8.2771 17.2228H11.7226C11.9662 17.2228 12.1997 17.1261 12.3721 16.9539C12.5443 16.7817 12.641 16.548 12.641 16.3044L12.6392 16.3044ZM15.0528 4.77533C15.1874 4.91178 15.37 4.99019 15.5615 4.99391C15.5979 4.99391 15.6342 4.99083 15.6699 4.98481C15.8087 4.95957 15.9362 4.89205 16.0348 4.79135C16.1335 4.69065 16.1986 4.56188 16.221 4.42275L16.6967 1.57401C16.7301 1.37594 16.6748 1.17311 16.5452 1.01965C16.4158 0.86603 16.2253 0.777243 16.0244 0.776859C15.9869 0.776731 15.9495 0.779806 15.9125 0.785956L13.0728 1.25436C12.9206 1.27972 12.7813 1.3557 12.6777 1.46998C12.5739 1.58439 12.5119 1.73032 12.5016 1.88433C12.4898 2.08714 12.567 2.28497 12.7128 2.42617L13.2509 2.96426L10.312 5.90311L8.74346 4.33453C8.57537 4.16644 8.34758 4.07214 8.10992 4.07214C7.87226 4.07214 7.64434 4.16657 7.47624 4.33466L2.56298 9.2499C2.38924 9.41671 2.29008 9.64643 2.28778 9.88718C2.28534 10.128 2.37989 10.3597 2.55017 10.53C2.72044 10.7002 2.95208 10.7948 3.19296 10.7925C3.43369 10.7901 3.66342 10.6909 3.83024 10.5173L8.10261 6.24491L9.67119 7.81348C9.83928 7.98145 10.0672 8.07587 10.3049 8.07587C10.5425 8.07587 10.7704 7.98145 10.9385 7.81348L14.5202 4.2243L15.0528 4.77533ZM1.91847 14.284H5.36234C5.69033 14.284 5.99359 14.1089 6.15759 13.8249C6.32171 13.5407 6.32171 13.1905 6.15759 12.9065C5.99359 12.6223 5.69033 12.4473 5.36234 12.4473H1.91847C1.59035 12.4473 1.28709 12.6223 1.12309 12.9065C0.958973 13.1905 0.958973 13.5407 1.12309 13.8249C1.28709 14.1089 1.59035 14.284 1.91847 14.284ZM6.28071 16.3045C6.28071 16.061 6.18385 15.8273 6.01166 15.6551C5.83947 15.4827 5.60591 15.386 5.36234 15.386H1.91846C1.59034 15.386 1.28709 15.561 1.12309 15.8452C0.958969 16.1294 0.958969 16.4794 1.12309 16.7636C1.28709 17.0477 1.59034 17.2227 1.91846 17.2227H5.36234C5.6059 17.2227 5.83947 17.126 6.01166 16.9538C6.18385 16.7816 6.28071 16.5481 6.28071 16.3045Z"/>
</mask>
<path d="M18.9999 13.3658C18.9999 13.6094 18.9032 13.8429 18.731 14.0151C18.5588 14.1873 18.3251 14.2842 18.0815 14.2842H14.6377C14.3097 14.2842 14.0064 14.109 13.8424 13.825C13.6783 13.5408 13.6783 13.1907 13.8424 12.9066C14.0064 12.6225 14.3097 12.4474 14.6377 12.4474H18.0815C18.3251 12.4474 18.5588 12.5442 18.731 12.7164C18.9032 12.8886 18.9999 13.1222 18.9999 13.3658ZM18.0815 9.50866H14.6377C14.3097 9.50866 14.0064 9.68367 13.8424 9.96784C13.6783 10.252 13.6783 10.602 13.8424 10.8862C14.0064 11.1704 14.3097 11.3454 14.6377 11.3454H18.0815C18.4097 11.3454 18.7129 11.1704 18.8769 10.8862C19.041 10.602 19.041 10.252 18.8769 9.96784C18.7129 9.68367 18.4097 9.50866 18.0815 9.50866ZM18.0815 6.56982H14.6377C14.3097 6.56982 14.0064 6.74496 13.8424 7.029C13.6783 7.31318 13.6783 7.66333 13.8424 7.94737C14.0064 8.23154 14.3097 8.40656 14.6377 8.40656H18.0815C18.4097 8.40656 18.7129 8.23154 18.8769 7.94737C19.041 7.66333 19.041 7.31317 18.8769 7.029C18.7129 6.74496 18.4097 6.56982 18.0815 6.56982ZM11.7209 12.4474L8.27698 12.4475C7.94886 12.4475 7.64573 12.6225 7.48161 12.9067C7.31761 13.1907 7.31761 13.5409 7.48161 13.8251C7.64573 14.1091 7.94886 14.2842 8.27698 14.2842H11.7225C12.0506 14.2842 12.3537 14.1091 12.5179 13.8251C12.6819 13.5409 12.6819 13.1907 12.5179 12.9067C12.3537 12.6225 12.0506 12.4475 11.7225 12.4475L11.7209 12.4474ZM11.7209 9.50853L8.27698 9.50866C7.94886 9.50866 7.64573 9.68367 7.48161 9.96784C7.31761 10.252 7.31761 10.602 7.48161 10.8862C7.64573 11.1704 7.94886 11.3454 8.27698 11.3454H11.7225C12.0506 11.3454 12.3537 11.1704 12.5179 10.8862C12.6819 10.602 12.6819 10.252 12.5179 9.96784C12.3537 9.68367 12.0506 9.50866 11.7225 9.50866L11.7209 9.50853ZM18.0815 15.3861H14.6377C14.3097 15.3861 14.0064 15.5611 13.8424 15.8453C13.6783 16.1294 13.6783 16.4795 13.8424 16.7636C14.0064 17.0478 14.3097 17.2228 14.6377 17.2228H18.0815C18.4097 17.2228 18.7129 17.0478 18.8769 16.7636C19.041 16.4795 19.041 16.1294 18.8769 15.8453C18.7129 15.5611 18.4097 15.3861 18.0815 15.3861ZM12.6392 16.3044C12.6392 16.0609 12.5426 15.8273 12.3703 15.6551C12.1981 15.4828 11.9645 15.3861 11.721 15.3861H8.2771C7.94899 15.3861 7.64586 15.5611 7.48173 15.8453C7.31774 16.1294 7.31774 16.4795 7.48173 16.7636C7.64586 17.0478 7.94899 17.2228 8.2771 17.2228H11.7226C11.9662 17.2228 12.1997 17.1261 12.3721 16.9539C12.5443 16.7817 12.641 16.548 12.641 16.3044L12.6392 16.3044ZM15.0528 4.77533C15.1874 4.91178 15.37 4.99019 15.5615 4.99391C15.5979 4.99391 15.6342 4.99083 15.6699 4.98481C15.8087 4.95957 15.9362 4.89205 16.0348 4.79135C16.1335 4.69065 16.1986 4.56188 16.221 4.42275L16.6967 1.57401C16.7301 1.37594 16.6748 1.17311 16.5452 1.01965C16.4158 0.86603 16.2253 0.777243 16.0244 0.776859C15.9869 0.776731 15.9495 0.779806 15.9125 0.785956L13.0728 1.25436C12.9206 1.27972 12.7813 1.3557 12.6777 1.46998C12.5739 1.58439 12.5119 1.73032 12.5016 1.88433C12.4898 2.08714 12.567 2.28497 12.7128 2.42617L13.2509 2.96426L10.312 5.90311L8.74346 4.33453C8.57537 4.16644 8.34758 4.07214 8.10992 4.07214C7.87226 4.07214 7.64434 4.16657 7.47624 4.33466L2.56298 9.2499C2.38924 9.41671 2.29008 9.64643 2.28778 9.88718C2.28534 10.128 2.37989 10.3597 2.55017 10.53C2.72044 10.7002 2.95208 10.7948 3.19296 10.7925C3.43369 10.7901 3.66342 10.6909 3.83024 10.5173L8.10261 6.24491L9.67119 7.81348C9.83928 7.98145 10.0672 8.07587 10.3049 8.07587C10.5425 8.07587 10.7704 7.98145 10.9385 7.81348L14.5202 4.2243L15.0528 4.77533ZM1.91847 14.284H5.36234C5.69033 14.284 5.99359 14.1089 6.15759 13.8249C6.32171 13.5407 6.32171 13.1905 6.15759 12.9065C5.99359 12.6223 5.69033 12.4473 5.36234 12.4473H1.91847C1.59035 12.4473 1.28709 12.6223 1.12309 12.9065C0.958973 13.1905 0.958973 13.5407 1.12309 13.8249C1.28709 14.1089 1.59035 14.284 1.91847 14.284ZM6.28071 16.3045C6.28071 16.061 6.18385 15.8273 6.01166 15.6551C5.83947 15.4827 5.60591 15.386 5.36234 15.386H1.91846C1.59034 15.386 1.28709 15.561 1.12309 15.8452C0.958969 16.1294 0.958969 16.4794 1.12309 16.7636C1.28709 17.0477 1.59034 17.2227 1.91846 17.2227H5.36234C5.6059 17.2227 5.83947 17.126 6.01166 16.9538C6.18385 16.7816 6.28071 16.5481 6.28071 16.3045Z" fill="#B4B9C7"/>
<path d="M18.9999 13.3658C18.9999 13.6094 18.9032 13.8429 18.731 14.0151C18.5588 14.1873 18.3251 14.2842 18.0815 14.2842H14.6377C14.3097 14.2842 14.0064 14.109 13.8424 13.825C13.6783 13.5408 13.6783 13.1907 13.8424 12.9066C14.0064 12.6225 14.3097 12.4474 14.6377 12.4474H18.0815C18.3251 12.4474 18.5588 12.5442 18.731 12.7164C18.9032 12.8886 18.9999 13.1222 18.9999 13.3658ZM18.0815 9.50866H14.6377C14.3097 9.50866 14.0064 9.68367 13.8424 9.96784C13.6783 10.252 13.6783 10.602 13.8424 10.8862C14.0064 11.1704 14.3097 11.3454 14.6377 11.3454H18.0815C18.4097 11.3454 18.7129 11.1704 18.8769 10.8862C19.041 10.602 19.041 10.252 18.8769 9.96784C18.7129 9.68367 18.4097 9.50866 18.0815 9.50866ZM18.0815 6.56982H14.6377C14.3097 6.56982 14.0064 6.74496 13.8424 7.029C13.6783 7.31318 13.6783 7.66333 13.8424 7.94737C14.0064 8.23154 14.3097 8.40656 14.6377 8.40656H18.0815C18.4097 8.40656 18.7129 8.23154 18.8769 7.94737C19.041 7.66333 19.041 7.31317 18.8769 7.029C18.7129 6.74496 18.4097 6.56982 18.0815 6.56982ZM11.7209 12.4474L8.27698 12.4475C7.94886 12.4475 7.64573 12.6225 7.48161 12.9067C7.31761 13.1907 7.31761 13.5409 7.48161 13.8251C7.64573 14.1091 7.94886 14.2842 8.27698 14.2842H11.7225C12.0506 14.2842 12.3537 14.1091 12.5179 13.8251C12.6819 13.5409 12.6819 13.1907 12.5179 12.9067C12.3537 12.6225 12.0506 12.4475 11.7225 12.4475L11.7209 12.4474ZM11.7209 9.50853L8.27698 9.50866C7.94886 9.50866 7.64573 9.68367 7.48161 9.96784C7.31761 10.252 7.31761 10.602 7.48161 10.8862C7.64573 11.1704 7.94886 11.3454 8.27698 11.3454H11.7225C12.0506 11.3454 12.3537 11.1704 12.5179 10.8862C12.6819 10.602 12.6819 10.252 12.5179 9.96784C12.3537 9.68367 12.0506 9.50866 11.7225 9.50866L11.7209 9.50853ZM18.0815 15.3861H14.6377C14.3097 15.3861 14.0064 15.5611 13.8424 15.8453C13.6783 16.1294 13.6783 16.4795 13.8424 16.7636C14.0064 17.0478 14.3097 17.2228 14.6377 17.2228H18.0815C18.4097 17.2228 18.7129 17.0478 18.8769 16.7636C19.041 16.4795 19.041 16.1294 18.8769 15.8453C18.7129 15.5611 18.4097 15.3861 18.0815 15.3861ZM12.6392 16.3044C12.6392 16.0609 12.5426 15.8273 12.3703 15.6551C12.1981 15.4828 11.9645 15.3861 11.721 15.3861H8.2771C7.94899 15.3861 7.64586 15.5611 7.48173 15.8453C7.31774 16.1294 7.31774 16.4795 7.48173 16.7636C7.64586 17.0478 7.94899 17.2228 8.2771 17.2228H11.7226C11.9662 17.2228 12.1997 17.1261 12.3721 16.9539C12.5443 16.7817 12.641 16.548 12.641 16.3044L12.6392 16.3044ZM15.0528 4.77533C15.1874 4.91178 15.37 4.99019 15.5615 4.99391C15.5979 4.99391 15.6342 4.99083 15.6699 4.98481C15.8087 4.95957 15.9362 4.89205 16.0348 4.79135C16.1335 4.69065 16.1986 4.56188 16.221 4.42275L16.6967 1.57401C16.7301 1.37594 16.6748 1.17311 16.5452 1.01965C16.4158 0.86603 16.2253 0.777243 16.0244 0.776859C15.9869 0.776731 15.9495 0.779806 15.9125 0.785956L13.0728 1.25436C12.9206 1.27972 12.7813 1.3557 12.6777 1.46998C12.5739 1.58439 12.5119 1.73032 12.5016 1.88433C12.4898 2.08714 12.567 2.28497 12.7128 2.42617L13.2509 2.96426L10.312 5.90311L8.74346 4.33453C8.57537 4.16644 8.34758 4.07214 8.10992 4.07214C7.87226 4.07214 7.64434 4.16657 7.47624 4.33466L2.56298 9.2499C2.38924 9.41671 2.29008 9.64643 2.28778 9.88718C2.28534 10.128 2.37989 10.3597 2.55017 10.53C2.72044 10.7002 2.95208 10.7948 3.19296 10.7925C3.43369 10.7901 3.66342 10.6909 3.83024 10.5173L8.10261 6.24491L9.67119 7.81348C9.83928 7.98145 10.0672 8.07587 10.3049 8.07587C10.5425 8.07587 10.7704 7.98145 10.9385 7.81348L14.5202 4.2243L15.0528 4.77533ZM1.91847 14.284H5.36234C5.69033 14.284 5.99359 14.1089 6.15759 13.8249C6.32171 13.5407 6.32171 13.1905 6.15759 12.9065C5.99359 12.6223 5.69033 12.4473 5.36234 12.4473H1.91847C1.59035 12.4473 1.28709 12.6223 1.12309 12.9065C0.958973 13.1905 0.958973 13.5407 1.12309 13.8249C1.28709 14.1089 1.59035 14.284 1.91847 14.284ZM6.28071 16.3045C6.28071 16.061 6.18385 15.8273 6.01166 15.6551C5.83947 15.4827 5.60591 15.386 5.36234 15.386H1.91846C1.59034 15.386 1.28709 15.561 1.12309 15.8452C0.958969 16.1294 0.958969 16.4794 1.12309 16.7636C1.28709 17.0477 1.59034 17.2227 1.91846 17.2227H5.36234C5.6059 17.2227 5.83947 17.126 6.01166 16.9538C6.18385 16.7816 6.28071 16.5481 6.28071 16.3045Z" stroke="#B4B9C7" stroke-width="0.2" mask="url(#path-1-outside-1_8744_2242)"/>
</svg>
