<svg width="16" height="18" viewBox="0 0 16 18" fill="none" xmlns="http://www.w3.org/2000/svg">
<path d="M15.6932 0.606604C15.403 0.205457 14.9639 0 14.4995 0H1.49493C0.99784 0 0.542448 0.242642 0.253993 0.686826C0.0634966 0.980346 0 1.32671 0 1.67697V17.8008C0 17.9456 0.156024 18.0494 0.272136 17.9691C1.03413 17.4506 1.79612 16.932 2.55629 16.4115C2.63249 16.3587 2.7105 16.3078 2.7867 16.255C3.51784 16.752 4.24898 17.251 4.98012 17.75C5.08716 17.8224 5.1942 17.8967 5.30306 17.9691C5.35567 18.0043 5.43368 18.0043 5.4863 17.9691C6.24829 17.4506 7.01028 16.932 7.77045 16.4115C7.84665 16.3587 7.92466 16.3078 8.00086 16.255C8.732 16.754 9.46314 17.251 10.1943 17.75C10.3013 17.8224 10.4084 17.8967 10.5154 17.9691C10.568 18.0043 10.646 18.0043 10.6986 17.9691C11.4606 17.4506 12.2208 16.932 12.9828 16.4115C13.059 16.3587 13.137 16.3078 13.2132 16.255C13.9443 16.752 14.6755 17.251 15.4066 17.75C15.5137 17.8224 15.6207 17.8967 15.7278 17.9691C15.8003 18.018 15.8711 18.0043 15.9219 17.9593C15.9672 17.93 15.9999 17.8752 15.9999 17.8008V1.66302C16.0035 1.27947 15.9164 0.913572 15.6933 0.606352L15.6932 0.606604ZM12.3349 10.6254H3.67001C3.46681 10.6254 3.31623 10.4434 3.30714 10.2302C3.29807 10.0188 3.47949 9.83684 3.67001 9.83684C3.67545 9.83684 3.67908 9.8388 3.68452 9.8388C4.03468 9.82901 4.38481 9.84075 4.73497 9.84075H12.3367C12.5399 9.84075 12.6904 10.0208 12.6995 10.2321C12.7068 10.4454 12.5254 10.6254 12.3349 10.6254L12.3349 10.6254ZM12.3349 5.69438H12.3204C11.9703 5.71395 11.6201 5.69438 11.27 5.69438H3.6683C3.4651 5.69438 3.31452 5.51631 3.30543 5.303C3.29636 5.09167 3.47779 4.91162 3.6683 4.91162H3.68281C4.03297 4.90184 4.3831 4.91162 4.73326 4.91162H12.3349C12.5381 4.91162 12.6887 5.09165 12.6978 5.303C12.7069 5.51435 12.5255 5.69438 12.3349 5.69438Z" fill="#B4B9C7"/>
</svg>
